<svg width="483" height="483" viewBox="0 0 483 483" fill="none" xmlns="http://www.w3.org/2000/svg">
<circle cx="241.5" cy="241.5" r="184.102" stroke="url(#paint0_linear_2241_56)" stroke-opacity="0.2"/>
<circle cx="241.5" cy="241.5" r="241" stroke="url(#paint1_linear_2241_56)" stroke-opacity="0.1"/>
<circle cx="241.5" cy="241.5" r="125.94" stroke="url(#paint2_linear_2241_56)" stroke-opacity="0.3"/>
<circle cx="241.5" cy="241.5" r="63.9843" stroke="#53DB78" stroke-opacity="0.8"/>
<rect x="177.779" y="195.481" width="127.44" height="33.8743" rx="6.5" fill="url(#paint3_linear_2241_56)" stroke="#53DB78"/>
<path d="M205.805 216.942C205.086 216.942 204.433 216.798 203.845 216.508C203.257 216.219 202.79 215.785 202.445 215.206C202.099 214.628 201.927 213.89 201.927 212.994V206.974H203.817V213.008C203.817 213.494 203.896 213.904 204.055 214.24C204.213 214.567 204.442 214.81 204.741 214.968C205.049 215.127 205.413 215.206 205.833 215.206C206.262 215.206 206.626 215.127 206.925 214.968C207.233 214.81 207.466 214.567 207.625 214.24C207.783 213.904 207.863 213.494 207.863 213.008V206.974H209.753V212.994C209.753 213.89 209.575 214.628 209.221 215.206C208.866 215.785 208.385 216.219 207.779 216.508C207.181 216.798 206.523 216.942 205.805 216.942ZM211.553 219.854V209.718H213.233L213.443 210.698C213.592 210.493 213.769 210.306 213.975 210.138C214.18 209.961 214.423 209.821 214.703 209.718C214.992 209.606 215.328 209.55 215.711 209.55C216.373 209.55 216.957 209.714 217.461 210.04C217.965 210.367 218.361 210.81 218.651 211.37C218.949 211.921 219.099 212.551 219.099 213.26C219.099 213.97 218.949 214.604 218.651 215.164C218.352 215.715 217.951 216.149 217.447 216.466C216.943 216.784 216.369 216.942 215.725 216.942C215.202 216.942 214.749 216.849 214.367 216.662C213.993 216.466 213.685 216.2 213.443 215.864V219.854H211.553ZM215.277 215.29C215.65 215.29 215.977 215.206 216.257 215.038C216.546 214.87 216.77 214.632 216.929 214.324C217.087 214.016 217.167 213.662 217.167 213.26C217.167 212.859 217.087 212.504 216.929 212.196C216.77 211.879 216.546 211.636 216.257 211.468C215.977 211.291 215.65 211.202 215.277 211.202C214.913 211.202 214.586 211.291 214.297 211.468C214.017 211.636 213.793 211.874 213.625 212.182C213.466 212.49 213.387 212.845 213.387 213.246C213.387 213.648 213.466 214.007 213.625 214.324C213.793 214.632 214.017 214.87 214.297 215.038C214.586 215.206 214.913 215.29 215.277 215.29ZM220.88 213.442V211.86H226.788V213.442H220.88ZM231.971 216.774C231.476 216.774 231.042 216.7 230.669 216.55C230.305 216.392 230.02 216.135 229.815 215.78C229.609 215.416 229.507 214.922 229.507 214.296V211.3H228.303V209.718H229.507L229.717 207.8H231.397V209.718H233.259V211.3H231.397V214.324C231.397 214.642 231.467 214.861 231.607 214.982C231.747 215.104 231.985 215.164 232.321 215.164H233.245V216.774H231.971ZM238.004 216.942C237.332 216.942 236.725 216.788 236.184 216.48C235.652 216.163 235.227 215.729 234.91 215.178C234.602 214.618 234.448 213.979 234.448 213.26C234.448 212.523 234.602 211.879 234.91 211.328C235.227 210.768 235.656 210.334 236.198 210.026C236.739 209.709 237.346 209.55 238.018 209.55C238.699 209.55 239.306 209.709 239.838 210.026C240.379 210.334 240.804 210.768 241.112 211.328C241.429 211.879 241.588 212.518 241.588 213.246C241.588 213.974 241.429 214.618 241.112 215.178C240.804 215.729 240.379 216.163 239.838 216.48C239.296 216.788 238.685 216.942 238.004 216.942ZM238.004 215.304C238.321 215.304 238.601 215.23 238.844 215.08C239.096 214.931 239.292 214.702 239.432 214.394C239.581 214.086 239.656 213.704 239.656 213.246C239.656 212.789 239.581 212.411 239.432 212.112C239.292 211.804 239.096 211.576 238.844 211.426C238.601 211.268 238.326 211.188 238.018 211.188C237.719 211.188 237.444 211.268 237.192 211.426C236.94 211.576 236.739 211.804 236.59 212.112C236.45 212.411 236.38 212.789 236.38 213.246C236.38 213.704 236.45 214.086 236.59 214.394C236.739 214.702 236.935 214.931 237.178 215.08C237.43 215.23 237.705 215.304 238.004 215.304ZM243.371 213.442V211.86H249.279V213.442H243.371ZM254.419 216.942C253.775 216.942 253.196 216.784 252.683 216.466C252.179 216.149 251.782 215.71 251.493 215.15C251.204 214.59 251.059 213.96 251.059 213.26C251.059 212.542 251.204 211.907 251.493 211.356C251.792 210.796 252.198 210.358 252.711 210.04C253.234 209.714 253.817 209.55 254.461 209.55C254.965 209.55 255.408 209.644 255.791 209.83C256.174 210.017 256.482 210.283 256.715 210.628V206.694H258.605V216.774H256.925L256.715 215.808C256.575 216.004 256.398 216.191 256.183 216.368C255.978 216.546 255.73 216.686 255.441 216.788C255.152 216.891 254.811 216.942 254.419 216.942ZM254.867 215.29C255.24 215.29 255.567 215.206 255.847 215.038C256.136 214.861 256.36 214.618 256.519 214.31C256.678 214.002 256.757 213.648 256.757 213.246C256.757 212.845 256.678 212.49 256.519 212.182C256.36 211.874 256.136 211.636 255.847 211.468C255.567 211.291 255.24 211.202 254.867 211.202C254.512 211.202 254.19 211.291 253.901 211.468C253.612 211.636 253.383 211.874 253.215 212.182C253.056 212.49 252.977 212.84 252.977 213.232C252.977 213.643 253.056 214.002 253.215 214.31C253.383 214.618 253.607 214.861 253.887 215.038C254.176 215.206 254.503 215.29 254.867 215.29ZM262.837 216.942C262.249 216.942 261.764 216.849 261.381 216.662C260.998 216.466 260.714 216.21 260.527 215.892C260.35 215.566 260.261 215.206 260.261 214.814C260.261 214.385 260.368 214.007 260.583 213.68C260.807 213.354 261.138 213.097 261.577 212.91C262.025 212.724 262.585 212.63 263.257 212.63H265.007C265.007 212.285 264.96 212 264.867 211.776C264.774 211.543 264.629 211.37 264.433 211.258C264.237 211.146 263.976 211.09 263.649 211.09C263.294 211.09 262.991 211.17 262.739 211.328C262.496 211.478 262.347 211.711 262.291 212.028H260.457C260.504 211.524 260.667 211.09 260.947 210.726C261.236 210.353 261.614 210.064 262.081 209.858C262.557 209.653 263.084 209.55 263.663 209.55C264.326 209.55 264.9 209.662 265.385 209.886C265.87 210.11 266.244 210.432 266.505 210.852C266.766 211.272 266.897 211.79 266.897 212.406V216.774H265.301L265.091 215.696C264.988 215.883 264.867 216.051 264.727 216.2C264.587 216.35 264.424 216.48 264.237 216.592C264.05 216.704 263.84 216.788 263.607 216.844C263.374 216.91 263.117 216.942 262.837 216.942ZM263.285 215.486C263.528 215.486 263.742 215.444 263.929 215.36C264.125 215.267 264.293 215.146 264.433 214.996C264.573 214.838 264.68 214.66 264.755 214.464C264.839 214.259 264.895 214.04 264.923 213.806V213.792H263.481C263.192 213.792 262.954 213.83 262.767 213.904C262.59 213.97 262.459 214.068 262.375 214.198C262.291 214.329 262.249 214.478 262.249 214.646C262.249 214.833 262.291 214.987 262.375 215.108C262.459 215.23 262.58 215.323 262.739 215.388C262.898 215.454 263.08 215.486 263.285 215.486ZM271.756 216.774C271.261 216.774 270.827 216.7 270.454 216.55C270.09 216.392 269.805 216.135 269.6 215.78C269.395 215.416 269.292 214.922 269.292 214.296V211.3H268.088V209.718H269.292L269.502 207.8H271.182V209.718H273.044V211.3H271.182V214.324C271.182 214.642 271.252 214.861 271.392 214.982C271.532 215.104 271.77 215.164 272.106 215.164H273.03V216.774H271.756ZM277.845 216.942C277.136 216.942 276.506 216.793 275.955 216.494C275.414 216.186 274.989 215.762 274.681 215.22C274.382 214.67 274.233 214.035 274.233 213.316C274.233 212.579 274.382 211.93 274.681 211.37C274.989 210.801 275.414 210.358 275.955 210.04C276.496 209.714 277.126 209.55 277.845 209.55C278.545 209.55 279.156 209.704 279.679 210.012C280.202 210.32 280.608 210.736 280.897 211.258C281.186 211.781 281.331 212.374 281.331 213.036C281.331 213.13 281.331 213.237 281.331 213.358C281.331 213.47 281.322 213.587 281.303 213.708H275.577V212.56H279.427C279.399 212.103 279.236 211.744 278.937 211.482C278.648 211.221 278.284 211.09 277.845 211.09C277.528 211.09 277.234 211.165 276.963 211.314C276.692 211.454 276.478 211.674 276.319 211.972C276.17 212.271 276.095 212.649 276.095 213.106V213.512C276.095 213.895 276.165 214.231 276.305 214.52C276.454 214.8 276.66 215.02 276.921 215.178C277.182 215.328 277.486 215.402 277.831 215.402C278.176 215.402 278.461 215.328 278.685 215.178C278.918 215.029 279.091 214.838 279.203 214.604H281.135C281.004 215.043 280.785 215.44 280.477 215.794C280.169 216.149 279.791 216.429 279.343 216.634C278.895 216.84 278.396 216.942 277.845 216.942Z" fill="#53DB78"/>
<line x1="242" y1="228.856" x2="242" y2="264.259" stroke="#53DB78"/>
<circle cx="242.132" cy="229.488" r="6.45419" fill="#000D01" stroke="#2E7F43"/>
<circle cx="242.132" cy="229.488" r="3.16099" fill="#53DB78"/>
<rect x="257.437" y="247.322" width="104.681" height="33.8743" rx="6.5" fill="url(#paint4_linear_2241_56)" stroke="#53DB78"/>
<path d="M280.088 268.615L283.672 258.815H285.814L289.384 268.615H287.382L284.736 260.971L282.076 268.615H280.088ZM281.67 266.389L282.174 264.919H287.158L287.648 266.389H281.67ZM293.139 268.783C292.57 268.783 292.08 268.666 291.669 268.433C291.268 268.19 290.96 267.84 290.745 267.383C290.53 266.916 290.423 266.342 290.423 265.661V261.559H292.313V265.465C292.313 266.034 292.43 266.463 292.663 266.753C292.906 267.042 293.274 267.187 293.769 267.187C294.086 267.187 294.366 267.117 294.609 266.977C294.852 266.827 295.043 266.617 295.183 266.347C295.332 266.067 295.407 265.726 295.407 265.325V261.559H297.283V268.615H295.631L295.477 267.467C295.272 267.868 294.968 268.19 294.567 268.433C294.166 268.666 293.69 268.783 293.139 268.783ZM302.312 268.615C301.817 268.615 301.383 268.54 301.01 268.391C300.646 268.232 300.361 267.975 300.156 267.621C299.951 267.257 299.848 266.762 299.848 266.137V263.141H298.644V261.559H299.848L300.058 259.641H301.738V261.559H303.6V263.141H301.738V266.165C301.738 266.482 301.808 266.701 301.948 266.823C302.088 266.944 302.326 267.005 302.662 267.005H303.586V268.615H302.312ZM308.345 268.783C307.673 268.783 307.066 268.629 306.525 268.321C305.993 268.003 305.568 267.569 305.251 267.019C304.943 266.459 304.789 265.819 304.789 265.101C304.789 264.363 304.943 263.719 305.251 263.169C305.568 262.609 305.998 262.175 306.539 261.867C307.08 261.549 307.687 261.391 308.359 261.391C309.04 261.391 309.647 261.549 310.179 261.867C310.72 262.175 311.145 262.609 311.453 263.169C311.77 263.719 311.929 264.359 311.929 265.087C311.929 265.815 311.77 266.459 311.453 267.019C311.145 267.569 310.72 268.003 310.179 268.321C309.638 268.629 309.026 268.783 308.345 268.783ZM308.345 267.145C308.662 267.145 308.942 267.07 309.185 266.921C309.437 266.771 309.633 266.543 309.773 266.235C309.922 265.927 309.997 265.544 309.997 265.087C309.997 264.629 309.922 264.251 309.773 263.953C309.633 263.645 309.437 263.416 309.185 263.267C308.942 263.108 308.667 263.029 308.359 263.029C308.06 263.029 307.785 263.108 307.533 263.267C307.281 263.416 307.08 263.645 306.931 263.953C306.791 264.251 306.721 264.629 306.721 265.087C306.721 265.544 306.791 265.927 306.931 266.235C307.08 266.543 307.276 266.771 307.519 266.921C307.771 267.07 308.046 267.145 308.345 267.145ZM313.712 265.283V263.701H319.62V265.283H313.712ZM321.946 268.615V263.141H320.98V261.559H321.946V260.929C321.946 260.341 322.044 259.874 322.24 259.529C322.436 259.183 322.716 258.931 323.08 258.773C323.454 258.614 323.888 258.535 324.382 258.535H325.152V260.145H324.662C324.373 260.145 324.163 260.205 324.032 260.327C323.902 260.439 323.836 260.635 323.836 260.915V261.559H328.274V268.615H326.384V263.141H323.836V268.615H321.946ZM327.336 260.607C327 260.607 326.72 260.504 326.496 260.299C326.282 260.093 326.174 259.837 326.174 259.529C326.174 259.221 326.282 258.969 326.496 258.773C326.72 258.577 327 258.479 327.336 258.479C327.682 258.479 327.962 258.577 328.176 258.773C328.4 258.969 328.512 259.221 328.512 259.529C328.512 259.837 328.4 260.093 328.176 260.299C327.962 260.504 327.682 260.607 327.336 260.607ZM329.511 268.615L332.045 265.087L329.511 261.559H331.555L333.249 263.981L334.943 261.559H336.973L334.439 265.087L336.973 268.615H334.943L333.249 266.179L331.555 268.615H329.511Z" fill="#53DB78"/>
<rect x="124.676" y="247.322" width="102.152" height="33.8743" rx="6.5" fill="url(#paint5_linear_2241_56)" stroke="#53DB78"/>
<path d="M148.653 268.783C147.944 268.783 147.309 268.661 146.749 268.419C146.199 268.176 145.76 267.821 145.433 267.355C145.116 266.888 144.953 266.323 144.943 265.661H146.945C146.955 265.95 147.029 266.211 147.169 266.445C147.309 266.678 147.501 266.865 147.743 267.005C147.995 267.135 148.294 267.201 148.639 267.201C148.938 267.201 149.195 267.154 149.409 267.061C149.633 266.958 149.806 266.818 149.927 266.641C150.049 266.463 150.109 266.253 150.109 266.011C150.109 265.731 150.039 265.497 149.899 265.311C149.769 265.124 149.582 264.965 149.339 264.835C149.106 264.704 148.831 264.587 148.513 264.485C148.205 264.373 147.879 264.256 147.533 264.135C146.759 263.883 146.166 263.547 145.755 263.127C145.354 262.707 145.153 262.151 145.153 261.461C145.153 260.873 145.293 260.369 145.573 259.949C145.863 259.529 146.259 259.207 146.763 258.983C147.267 258.759 147.841 258.647 148.485 258.647C149.148 258.647 149.727 258.763 150.221 258.997C150.725 259.221 151.122 259.547 151.411 259.977C151.71 260.406 151.864 260.91 151.873 261.489H149.857C149.848 261.274 149.783 261.073 149.661 260.887C149.549 260.691 149.391 260.537 149.185 260.425C148.98 260.303 148.737 260.243 148.457 260.243C148.215 260.233 147.991 260.271 147.785 260.355C147.589 260.439 147.431 260.565 147.309 260.733C147.197 260.891 147.141 261.092 147.141 261.335C147.141 261.568 147.197 261.764 147.309 261.923C147.431 262.081 147.594 262.221 147.799 262.343C148.005 262.455 148.247 262.562 148.527 262.665C148.807 262.758 149.111 262.856 149.437 262.959C149.923 263.127 150.371 263.327 150.781 263.561C151.192 263.785 151.519 264.079 151.761 264.443C152.004 264.807 152.125 265.287 152.125 265.885C152.125 266.398 151.99 266.874 151.719 267.313C151.449 267.751 151.057 268.106 150.543 268.377C150.039 268.647 149.409 268.783 148.653 268.783ZM157.074 268.783C156.365 268.783 155.735 268.633 155.184 268.335C154.643 268.027 154.218 267.602 153.91 267.061C153.612 266.51 153.462 265.875 153.462 265.157C153.462 264.419 153.612 263.771 153.91 263.211C154.218 262.641 154.643 262.198 155.184 261.881C155.726 261.554 156.356 261.391 157.074 261.391C157.774 261.391 158.386 261.545 158.908 261.853C159.431 262.161 159.837 262.576 160.126 263.099C160.416 263.621 160.56 264.214 160.56 264.877C160.56 264.97 160.56 265.077 160.56 265.199C160.56 265.311 160.551 265.427 160.532 265.549H154.806V264.401H158.656C158.628 263.943 158.465 263.584 158.166 263.323C157.877 263.061 157.513 262.931 157.074 262.931C156.757 262.931 156.463 263.005 156.192 263.155C155.922 263.295 155.707 263.514 155.548 263.813C155.399 264.111 155.324 264.489 155.324 264.947V265.353C155.324 265.735 155.394 266.071 155.534 266.361C155.684 266.641 155.889 266.86 156.15 267.019C156.412 267.168 156.715 267.243 157.06 267.243C157.406 267.243 157.69 267.168 157.914 267.019C158.148 266.869 158.32 266.678 158.432 266.445H160.364C160.234 266.883 160.014 267.28 159.706 267.635C159.398 267.989 159.02 268.269 158.572 268.475C158.124 268.68 157.625 268.783 157.074 268.783ZM162.108 268.615V258.535H163.998V268.615H162.108ZM166.163 268.615V260.929C166.163 260.341 166.261 259.874 166.457 259.529C166.653 259.183 166.933 258.931 167.297 258.773C167.67 258.614 168.104 258.535 168.599 258.535H169.467V260.145H168.879C168.58 260.145 168.365 260.205 168.235 260.327C168.113 260.439 168.053 260.639 168.053 260.929V268.615H166.163ZM165.197 263.141V261.559H169.579V263.141H165.197ZM171.19 265.283V263.701H177.098V265.283H171.19ZM179.102 268.615V258.535H180.992V262.609C181.226 262.235 181.534 261.941 181.916 261.727C182.308 261.503 182.761 261.391 183.274 261.391C183.862 261.391 184.357 261.517 184.758 261.769C185.16 262.011 185.463 262.366 185.668 262.833C185.874 263.299 185.976 263.878 185.976 264.569V268.615H184.1V264.737C184.1 264.177 183.984 263.747 183.75 263.449C183.517 263.141 183.148 262.987 182.644 262.987C182.336 262.987 182.056 263.061 181.804 263.211C181.552 263.36 181.352 263.579 181.202 263.869C181.062 264.149 180.992 264.485 180.992 264.877V268.615H179.102ZM191.145 268.783C190.435 268.783 189.805 268.633 189.255 268.335C188.713 268.027 188.289 267.602 187.981 267.061C187.682 266.51 187.533 265.875 187.533 265.157C187.533 264.419 187.682 263.771 187.981 263.211C188.289 262.641 188.713 262.198 189.255 261.881C189.796 261.554 190.426 261.391 191.145 261.391C191.845 261.391 192.456 261.545 192.979 261.853C193.501 262.161 193.907 262.576 194.197 263.099C194.486 263.621 194.631 264.214 194.631 264.877C194.631 264.97 194.631 265.077 194.631 265.199C194.631 265.311 194.621 265.427 194.603 265.549H188.877V264.401H192.727C192.699 263.943 192.535 263.584 192.237 263.323C191.947 263.061 191.583 262.931 191.145 262.931C190.827 262.931 190.533 263.005 190.263 263.155C189.992 263.295 189.777 263.514 189.619 263.813C189.469 264.111 189.395 264.489 189.395 264.947V265.353C189.395 265.735 189.465 266.071 189.605 266.361C189.754 266.641 189.959 266.86 190.221 267.019C190.482 267.168 190.785 267.243 191.131 267.243C191.476 267.243 191.761 267.168 191.985 267.019C192.218 266.869 192.391 266.678 192.503 266.445H194.435C194.304 266.883 194.085 267.28 193.777 267.635C193.469 267.989 193.091 268.269 192.643 268.475C192.195 268.68 191.695 268.783 191.145 268.783ZM198.559 268.783C197.971 268.783 197.485 268.689 197.103 268.503C196.72 268.307 196.435 268.05 196.249 267.733C196.071 267.406 195.983 267.047 195.983 266.655C195.983 266.225 196.09 265.847 196.305 265.521C196.529 265.194 196.86 264.937 197.299 264.751C197.747 264.564 198.307 264.471 198.979 264.471H200.729C200.729 264.125 200.682 263.841 200.589 263.617C200.495 263.383 200.351 263.211 200.155 263.099C199.959 262.987 199.697 262.931 199.371 262.931C199.016 262.931 198.713 263.01 198.461 263.169C198.218 263.318 198.069 263.551 198.013 263.869H196.179C196.225 263.365 196.389 262.931 196.669 262.567C196.958 262.193 197.336 261.904 197.803 261.699C198.279 261.493 198.806 261.391 199.385 261.391C200.047 261.391 200.621 261.503 201.107 261.727C201.592 261.951 201.965 262.273 202.227 262.693C202.488 263.113 202.619 263.631 202.619 264.247V268.615H201.023L200.813 267.537C200.71 267.723 200.589 267.891 200.449 268.041C200.309 268.19 200.145 268.321 199.959 268.433C199.772 268.545 199.562 268.629 199.329 268.685C199.095 268.75 198.839 268.783 198.559 268.783ZM199.007 267.327C199.249 267.327 199.464 267.285 199.651 267.201C199.847 267.107 200.015 266.986 200.155 266.837C200.295 266.678 200.402 266.501 200.477 266.305C200.561 266.099 200.617 265.88 200.645 265.647V265.633H199.203C198.913 265.633 198.675 265.67 198.489 265.745C198.311 265.81 198.181 265.908 198.097 266.039C198.013 266.169 197.971 266.319 197.971 266.487C197.971 266.673 198.013 266.827 198.097 266.949C198.181 267.07 198.302 267.163 198.461 267.229C198.619 267.294 198.801 267.327 199.007 267.327ZM204.382 268.615V258.535H206.272V268.615H204.382Z" fill="#53DB78"/>
<line x1="230.12" y1="265.023" x2="251.615" y2="265.023" stroke="#53DB78"/>
<circle cx="226.959" cy="264.891" r="6.45419" fill="#000D01" stroke="#2E7F43"/>
<circle cx="226.959" cy="264.891" r="3.16099" fill="#53DB78"/>
<circle cx="257.304" cy="264.891" r="6.45419" fill="#000D01" stroke="#2E7F43"/>
<circle cx="257.305" cy="264.891" r="3.16099" fill="#53DB78"/>
<defs>
<linearGradient id="paint0_linear_2241_56" x1="241.5" y1="56.8979" x2="241" y2="364.5" gradientUnits="userSpaceOnUse">
<stop offset="0.697115" stop-color="#53DB78"/>
<stop offset="1" stop-color="#000D01"/>
</linearGradient>
<linearGradient id="paint1_linear_2241_56" x1="241.5" y1="0" x2="242" y2="416.5" gradientUnits="userSpaceOnUse">
<stop offset="0.7" stop-color="#53DB78"/>
<stop offset="1" stop-color="#000D01"/>
</linearGradient>
<linearGradient id="paint2_linear_2241_56" x1="241.5" y1="115.061" x2="242" y2="358" gradientUnits="userSpaceOnUse">
<stop offset="0.5" stop-color="#53DB78"/>
<stop offset="1" stop-color="#000D01"/>
</linearGradient>
<linearGradient id="paint3_linear_2241_56" x1="138.351" y1="279.465" x2="324.187" y2="258.337" gradientUnits="userSpaceOnUse">
<stop stop-color="#1C3724"/>
<stop offset="1" stop-color="#001E09"/>
</linearGradient>
<linearGradient id="paint4_linear_2241_56" x1="225.195" y1="331.305" x2="378.22" y2="317.039" gradientUnits="userSpaceOnUse">
<stop stop-color="#1C3724"/>
<stop offset="1" stop-color="#001E09"/>
</linearGradient>
<linearGradient id="paint5_linear_2241_56" x1="93.2331" y1="331.305" x2="242.588" y2="317.721" gradientUnits="userSpaceOnUse">
<stop stop-color="#1C3724"/>
<stop offset="1" stop-color="#001E09"/>
</linearGradient>
</defs>
</svg>
