<svg width="799" height="645" viewBox="0 0 799 645" fill="none" xmlns="http://www.w3.org/2000/svg">
<g opacity="0.35">
<rect width="391.938" height="391.938" rx="10" transform="matrix(0.866025 0.5 -0.866025 0.5 399.429 167.314)" fill="url(#paint0_linear_2248_746)"/>
<rect x="-5.96046e-08" y="1" width="389.938" height="389.938" rx="9" transform="matrix(0.866025 0.5 -0.866025 0.5 400.295 167.814)" stroke="#53DB78" stroke-opacity="0.5" stroke-width="2"/>
<path d="M306.776 300.496L310.8 298.173L300.74 292.364C299.673 291.748 298.225 291.402 296.716 291.402C295.207 291.402 293.759 291.748 292.692 292.364L260.499 310.951C259.432 311.567 258.833 312.402 258.833 313.274C258.833 314.145 259.432 314.981 260.499 315.597L292.692 334.183C293.759 334.8 295.207 335.146 296.716 335.146C298.225 335.146 299.673 334.8 300.74 334.183L318.848 323.729L314.824 321.405L296.716 331.86L264.523 313.274L296.716 294.688" fill="#53DB78" fill-opacity="0.5"/>
<path d="M332.932 315.597L316.836 306.304L332.932 297.011L349.028 306.304L332.932 315.597ZM328.908 294.688L312.812 303.981C311.744 304.597 311.145 305.433 311.145 306.304C311.145 307.175 311.744 308.011 312.812 308.627L328.908 317.92C329.975 318.537 331.423 318.883 332.932 318.883C334.441 318.883 335.889 318.537 336.956 317.92L353.052 308.627C354.119 308.011 354.719 307.175 354.719 306.304C354.719 305.433 354.119 304.597 353.052 303.981L336.956 294.688C335.889 294.071 334.441 293.725 332.932 293.725C331.423 293.725 329.975 294.071 328.908 294.688ZM304.764 313.274L296.715 317.92L288.667 313.274L296.715 308.627L304.764 313.274ZM292.691 306.304L284.643 310.951C283.576 311.567 282.977 312.402 282.977 313.274C282.977 314.145 283.576 314.981 284.643 315.597L292.691 320.244C293.759 320.86 295.206 321.206 296.715 321.206C298.225 321.206 299.672 320.86 300.74 320.244L308.788 315.597C309.855 314.981 310.454 314.145 310.454 313.274C310.454 312.402 309.855 311.567 308.788 310.951L300.74 306.304C299.672 305.688 298.225 305.342 296.715 305.342C295.206 305.342 293.759 305.688 292.691 306.304ZM334.944 328.375L330.92 330.699L326.896 328.375L330.92 326.052L334.944 328.375ZM328.908 322.567L320.86 327.214C320.326 327.522 320.026 327.94 320.026 328.375C320.026 328.811 320.326 329.229 320.86 329.537L328.908 334.183C329.441 334.492 330.165 334.665 330.92 334.665C331.675 334.665 332.398 334.492 332.932 334.183L340.98 329.537C341.514 329.229 341.813 328.811 341.813 328.375C341.813 327.94 341.514 327.522 340.98 327.214L332.932 322.567C332.398 322.259 331.675 322.086 330.92 322.086C330.165 322.086 329.441 322.259 328.908 322.567Z" fill="#53DB78" fill-opacity="0.5"/>
<g clip-path="url(#clip0_2248_746)">
<path d="M419.838 370.914L442.738 357.693L433.275 352.229L429.49 354.415L435.168 357.693L431.383 359.878L425.705 356.6L421.92 358.786L427.598 362.064L416.053 368.729C412.079 367.308 406.59 367.636 402.994 369.712C398.831 372.116 398.831 376.05 402.994 378.454C407.158 380.857 413.971 380.857 418.135 378.454C421.731 376.377 422.109 373.318 419.838 370.914ZM406.78 376.268C404.698 375.066 404.698 373.099 406.78 371.898C408.861 370.696 412.268 370.696 414.35 371.898C416.432 373.099 416.432 375.066 414.35 376.268C412.268 377.47 408.861 377.47 406.78 376.268Z" fill="#53DB78" fill-opacity="0.5"/>
<path d="M367.036 377.36L362.683 367.854C360.033 361.953 362.872 355.725 370.253 351.464L397.316 335.839C399.398 334.637 402.805 334.637 404.887 335.839L427.597 348.951L423.812 351.136L401.102 338.024L374.038 353.649C367.982 357.146 365.521 362.281 367.793 367.089L371.199 374.956L384.826 376.923C388.232 377.36 391.639 377.579 395.045 377.142L395.992 380.092C391.828 380.529 387.475 380.42 383.312 379.764L367.036 377.36Z" fill="#53DB78" fill-opacity="0.5"/>
</g>
<path d="M511.87 417.523C515.374 414.543 516.969 410.952 516.38 407.366C515.792 403.781 513.057 400.426 508.646 397.88C504.235 395.333 498.425 393.754 492.215 393.414C486.005 393.075 479.784 393.995 474.623 396.018C470.5 394.357 465.45 393.649 460.467 394.032C455.484 394.415 450.931 395.862 447.705 398.088C444.479 400.314 442.814 403.157 443.04 406.056C443.265 408.955 445.364 411.701 448.923 413.751L449.871 414.298L453.663 412.108L452.715 411.561C450.002 410.003 448.445 407.896 448.374 405.686C448.303 403.476 449.724 401.338 452.337 399.722C454.949 398.107 458.547 397.142 462.37 397.031C466.193 396.92 469.94 397.672 472.82 399.128L474.513 399.981L476.263 399.168C480.383 397.256 485.582 396.29 490.86 396.456C496.138 396.621 501.125 397.906 504.862 400.064C508.6 402.222 510.826 405.101 511.112 408.149C511.399 411.196 509.726 414.197 506.415 416.576L505.006 417.586L506.481 418.565C508.991 420.228 510.283 422.389 510.087 424.592C509.89 426.795 508.219 428.868 505.426 430.373C502.633 431.879 498.937 432.699 495.117 432.661C491.297 432.624 487.651 431.731 484.949 430.171L484.001 429.624L480.209 431.813L481.157 432.361C484.707 434.415 489.462 435.627 494.484 435.757C499.506 435.888 504.43 434.927 508.285 433.064C512.141 431.202 514.647 428.573 515.311 425.696C515.974 422.819 514.747 419.903 511.87 417.523Z" fill="#53DB78" fill-opacity="0.5"/>
<path d="M484.003 427.436L487.795 425.247L483.811 422.947C484.754 422.12 485.411 421.197 485.747 420.227L491.397 420.227L491.397 417.131L485.747 417.131C485.411 416.16 484.754 415.237 483.811 414.41L487.795 412.11L484.003 409.921L480.019 412.221C478.587 411.677 476.988 411.297 475.307 411.103L475.307 407.841L469.945 407.841L469.945 411.103C468.264 411.297 466.665 411.677 465.233 412.221L461.249 409.921L457.457 412.11L461.441 414.41C460.498 415.237 459.841 416.16 459.505 417.131L453.854 417.131L453.854 420.227L459.505 420.227C459.841 421.197 460.498 422.12 461.441 422.947L457.457 425.247L461.249 427.436L465.233 425.136C466.665 425.68 468.264 426.06 469.945 426.254L469.945 429.516L475.307 429.516L475.307 426.254C476.988 426.06 478.587 425.68 480.019 425.136L484.003 427.436ZM466.938 421.963C465.813 421.313 465.046 420.486 464.736 419.585C464.426 418.684 464.585 417.75 465.194 416.901C465.803 416.053 466.834 415.327 468.157 414.817C469.48 414.307 471.035 414.034 472.626 414.034C474.217 414.034 475.772 414.307 477.095 414.817C478.418 415.327 479.449 416.053 480.058 416.901C480.667 417.75 480.826 418.684 480.516 419.585C480.206 420.486 479.439 421.313 478.314 421.963C476.805 422.833 474.759 423.321 472.626 423.321C470.493 423.321 468.447 422.833 466.938 421.963Z" fill="#53DB78" fill-opacity="0.5"/>
</g>
<rect width="308.997" height="308.997" rx="10" transform="matrix(0.866025 0.5 -0.866025 0.5 399.157 127.47)" fill="url(#paint1_linear_2248_746)"/>
<rect x="-5.96046e-08" y="1" width="306.997" height="306.997" rx="9" transform="matrix(0.866025 0.5 -0.866025 0.5 400.023 127.97)" stroke="#53DB78" stroke-opacity="0.5" stroke-width="2"/>
<path d="M349.461 243.982L353.485 241.659L343.424 235.851C342.357 235.234 340.91 234.888 339.4 234.888C337.891 234.888 336.444 235.234 335.376 235.851L303.184 254.437C302.117 255.053 301.517 255.889 301.517 256.76C301.517 257.632 302.117 258.467 303.184 259.083L335.376 277.67C336.444 278.286 337.891 278.632 339.4 278.632C340.91 278.632 342.357 278.286 343.424 277.67L361.533 267.215L357.509 264.892L339.4 275.346L307.208 256.76L339.4 238.174" fill="#53DB78" fill-opacity="0.75"/>
<path d="M375.616 259.084L359.52 249.79L375.616 240.497L391.713 249.79L375.616 259.084ZM371.592 238.174L355.496 247.467C354.429 248.083 353.829 248.919 353.829 249.79C353.829 250.662 354.429 251.497 355.496 252.114L371.592 261.407C372.66 262.023 374.107 262.369 375.616 262.369C377.126 262.369 378.573 262.023 379.64 261.407L395.737 252.114C396.804 251.497 397.403 250.662 397.403 249.79C397.403 248.919 396.804 248.083 395.737 247.467L379.64 238.174C378.573 237.558 377.126 237.212 375.616 237.212C374.107 237.212 372.66 237.558 371.592 238.174ZM347.448 256.76L339.4 261.407L331.352 256.76L339.4 252.114L347.448 256.76ZM335.376 249.79L327.328 254.437C326.261 255.053 325.661 255.889 325.661 256.76C325.661 257.632 326.261 258.467 327.328 259.084L335.376 263.73C336.443 264.346 337.891 264.692 339.4 264.692C340.909 264.692 342.357 264.346 343.424 263.73L351.472 259.084C352.539 258.467 353.139 257.632 353.139 256.76C353.139 255.889 352.539 255.053 351.472 254.437L343.424 249.79C342.357 249.174 340.909 248.828 339.4 248.828C337.891 248.828 336.443 249.174 335.376 249.79ZM377.628 271.862L373.604 274.185L369.58 271.862L373.604 269.538L377.628 271.862ZM371.592 266.053L363.544 270.7C363.011 271.008 362.711 271.426 362.711 271.862C362.711 272.297 363.011 272.715 363.544 273.023L371.592 277.67C372.126 277.978 372.85 278.151 373.604 278.151C374.359 278.151 375.083 277.978 375.616 277.67L383.665 273.023C384.198 272.715 384.498 272.297 384.498 271.862C384.498 271.426 384.198 271.008 383.665 270.7L375.616 266.053C375.083 265.745 374.359 265.572 373.604 265.572C372.85 265.572 372.126 265.745 371.592 266.053Z" fill="#53DB78" fill-opacity="0.75"/>
<g clip-path="url(#clip1_2248_746)">
<path d="M462.524 314.4L485.424 301.179L475.961 295.716L472.176 297.901L477.853 301.179L474.068 303.365L468.391 300.086L464.606 302.272L470.283 305.55L458.739 312.215C454.764 310.795 449.276 311.122 445.68 313.199C441.516 315.602 441.516 319.536 445.68 321.94C449.844 324.344 456.657 324.344 460.82 321.94C464.416 319.864 464.795 316.804 462.524 314.4ZM449.465 319.755C447.383 318.553 447.383 316.586 449.465 315.384C451.547 314.182 454.954 314.182 457.035 315.384C459.117 316.586 459.117 318.553 457.035 319.755C454.954 320.956 451.547 320.956 449.465 319.755Z" fill="#53DB78" fill-opacity="0.75"/>
<path d="M409.721 320.846L405.368 311.34C402.719 305.44 405.557 299.212 412.938 294.95L440.002 279.325C442.084 278.123 445.49 278.123 447.572 279.325L470.283 292.437L466.498 294.622L443.787 281.51L416.724 297.135C410.667 300.632 408.207 305.768 410.478 310.575L413.885 318.443L427.511 320.409C430.918 320.846 434.324 321.065 437.731 320.628L438.677 323.578C434.514 324.015 430.161 323.906 425.997 323.25L409.721 320.846Z" fill="#53DB78" fill-opacity="0.75"/>
</g>
<rect x="-5.96046e-08" y="1" width="230.561" height="230.561" rx="9" transform="matrix(0.866025 0.5 -0.866025 0.5 399.693 86.5)" fill="url(#paint2_linear_2248_746)" stroke="#53DB78" stroke-width="2"/>
<path d="M392.791 189.502L396.815 187.178L386.755 181.37C385.687 180.754 384.24 180.408 382.73 180.408C381.221 180.408 379.774 180.754 378.706 181.37L346.514 199.956C345.447 200.573 344.847 201.408 344.847 202.28C344.847 203.151 345.447 203.987 346.514 204.603L378.706 223.189C379.774 223.805 381.221 224.152 382.73 224.152C384.24 224.152 385.687 223.805 386.755 223.189L404.863 212.734L400.839 210.411L382.73 220.866L350.538 202.28L382.73 183.693" fill="#53DB78"/>
<path d="M418.947 204.603L402.85 195.31L418.947 186.017L435.043 195.31L418.947 204.603ZM414.922 183.693L398.826 192.987C397.759 193.603 397.159 194.438 397.159 195.31C397.159 196.181 397.759 197.017 398.826 197.633L414.922 206.926C415.99 207.542 417.437 207.889 418.947 207.889C420.456 207.889 421.903 207.542 422.971 206.926L439.067 197.633C440.134 197.017 440.734 196.181 440.734 195.31C440.734 194.438 440.134 193.603 439.067 192.987L422.971 183.693C421.903 183.077 420.456 182.731 418.947 182.731C417.437 182.731 415.99 183.077 414.922 183.693ZM390.778 202.28L382.73 206.926L374.682 202.28L382.73 197.633L390.778 202.28ZM378.706 195.31L370.658 199.956C369.591 200.573 368.991 201.408 368.991 202.28C368.991 203.151 369.591 203.987 370.658 204.603L378.706 209.25C379.773 209.866 381.221 210.212 382.73 210.212C384.239 210.212 385.687 209.866 386.754 209.25L394.802 204.603C395.87 203.987 396.469 203.151 396.469 202.28C396.469 201.408 395.87 200.573 394.802 199.956L386.754 195.31C385.687 194.694 384.239 194.348 382.73 194.348C381.221 194.348 379.773 194.694 378.706 195.31ZM420.959 217.381L416.935 219.704L412.91 217.381L416.935 215.058L420.959 217.381ZM414.922 211.573L406.874 216.219C406.341 216.528 406.041 216.945 406.041 217.381C406.041 217.817 406.341 218.235 406.874 218.543L414.922 223.189C415.456 223.497 416.18 223.67 416.935 223.67C417.689 223.67 418.413 223.497 418.947 223.189L426.995 218.543C427.528 218.235 427.828 217.817 427.828 217.381C427.828 216.945 427.528 216.528 426.995 216.219L418.947 211.573C418.413 211.265 417.689 211.092 416.935 211.092C416.18 211.092 415.456 211.265 414.922 211.573Z" fill="#53DB78"/>
<defs>
<linearGradient id="paint0_linear_2248_746" x1="377.693" y1="391.938" x2="-33.1472" y2="138.5" gradientUnits="userSpaceOnUse">
<stop stop-color="#000D01"/>
<stop offset="1" stop-color="#1D3718"/>
</linearGradient>
<linearGradient id="paint1_linear_2248_746" x1="297.766" y1="308.997" x2="-26.1327" y2="109.191" gradientUnits="userSpaceOnUse">
<stop stop-color="#000D01"/>
<stop offset="1" stop-color="#1D3718"/>
</linearGradient>
<linearGradient id="paint2_linear_2248_746" x1="224.108" y1="232.561" x2="-19.6683" y2="82.1803" gradientUnits="userSpaceOnUse">
<stop stop-color="#000D01"/>
<stop offset="1" stop-color="#2B753F"/>
</linearGradient>
<clipPath id="clip0_2248_746">
<rect width="69.9308" height="69.9308" fill="white" transform="matrix(0.866025 0.5 -0.866025 0.5 397.316 327.098)"/>
</clipPath>
<clipPath id="clip1_2248_746">
<rect width="69.9308" height="69.9308" fill="white" transform="matrix(0.866025 0.5 -0.866025 0.5 440.002 270.584)"/>
</clipPath>
</defs>
</svg>
