<svg width="345" height="237" viewBox="0 0 345 237" fill="none" xmlns="http://www.w3.org/2000/svg">
<path d="M27.75 0C27.8895 0 28.0242 0.0200492 28.1523 0.0556641C28.165 0.0591829 28.1779 0.0615839 28.1904 0.0654297C28.2214 0.0749171 28.2512 0.0872339 28.2812 0.0986328C28.2962 0.104296 28.3114 0.109098 28.3262 0.115234C28.4881 0.182681 28.6344 0.278799 28.7617 0.395508C28.7778 0.410273 28.795 0.423932 28.8105 0.439453L44.5605 16.1895C44.7992 16.4281 44.9573 16.7466 44.9922 17.1016C44.9971 17.1507 45 17.2002 45 17.25V48.75C45 50.5402 44.2893 52.2576 43.0234 53.5234C41.7576 54.7893 40.0402 55.5 38.25 55.5H6.75C4.95979 55.5 3.24243 54.7893 1.97656 53.5234C0.710692 52.2576 0 50.5402 0 48.75V6.75C0 4.95979 0.710692 3.24243 1.97656 1.97656C3.24243 0.710692 4.95979 0 6.75 0H27.75ZM6.75 3C5.75544 3 4.80189 3.39537 4.09863 4.09863C3.39537 4.80189 3 5.75544 3 6.75V48.75C3 49.7446 3.39537 50.6981 4.09863 51.4014C4.80189 52.1046 5.75544 52.5 6.75 52.5H38.25C39.2446 52.5 40.1981 52.1046 40.9014 51.4014C41.6046 50.6981 42 49.7446 42 48.75V18.75H27.75C26.9216 18.75 26.25 18.0784 26.25 17.25V3H6.75ZM33 39.375C33.8284 39.375 34.5 40.0466 34.5 40.875C34.5 41.7034 33.8284 42.375 33 42.375H12C11.1716 42.375 10.5 41.7034 10.5 40.875C10.5 40.0466 11.1716 39.375 12 39.375H33ZM33 28.875C33.8284 28.875 34.5 29.5466 34.5 30.375C34.5 31.2034 33.8284 31.875 33 31.875H12C11.1716 31.875 10.5 31.2034 10.5 30.375C10.5 29.5466 11.1716 28.875 12 28.875H33ZM17.25 18.375C18.0784 18.375 18.75 19.0466 18.75 19.875C18.75 20.7034 18.0784 21.375 17.25 21.375H12C11.1716 21.375 10.5 20.7034 10.5 19.875C10.5 19.0466 11.1716 18.375 12 18.375H17.25ZM29.25 15.75H39.8789L29.25 5.12109V15.75Z" fill="url(#paint0_linear_2177_2155)"/>
<path d="M102.75 0C102.889 0 103.024 0.0200492 103.152 0.0556641C103.165 0.0591829 103.178 0.0615839 103.19 0.0654297C103.221 0.0749171 103.251 0.0872339 103.281 0.0986328C103.296 0.104296 103.311 0.109098 103.326 0.115234C103.488 0.182681 103.634 0.278799 103.762 0.395508C103.778 0.410273 103.795 0.423932 103.811 0.439453L119.561 16.1895C119.799 16.4281 119.957 16.7466 119.992 17.1016C119.997 17.1507 120 17.2002 120 17.25V48.75C120 50.5402 119.289 52.2576 118.023 53.5234C116.758 54.7893 115.04 55.5 113.25 55.5H81.75C79.9598 55.5 78.2424 54.7893 76.9766 53.5234C75.7107 52.2576 75 50.5402 75 48.75V6.75C75 4.95979 75.7107 3.24243 76.9766 1.97656C78.2424 0.710692 79.9598 0 81.75 0H102.75ZM81.75 3C80.7554 3 79.8019 3.39537 79.0986 4.09863C78.3954 4.80189 78 5.75544 78 6.75V48.75C78 49.7446 78.3954 50.6981 79.0986 51.4014C79.8019 52.1046 80.7554 52.5 81.75 52.5H113.25C114.245 52.5 115.198 52.1046 115.901 51.4014C116.605 50.6981 117 49.7446 117 48.75V18.75H102.75C101.922 18.75 101.25 18.0784 101.25 17.25V3H81.75ZM108 39.375C108.828 39.375 109.5 40.0466 109.5 40.875C109.5 41.7034 108.828 42.375 108 42.375H87C86.1716 42.375 85.5 41.7034 85.5 40.875C85.5 40.0466 86.1716 39.375 87 39.375H108ZM108 28.875C108.828 28.875 109.5 29.5466 109.5 30.375C109.5 31.2034 108.828 31.875 108 31.875H87C86.1716 31.875 85.5 31.2034 85.5 30.375C85.5 29.5466 86.1716 28.875 87 28.875H108ZM92.25 18.375C93.0784 18.375 93.75 19.0466 93.75 19.875C93.75 20.7034 93.0784 21.375 92.25 21.375H87C86.1716 21.375 85.5 20.7034 85.5 19.875C85.5 19.0466 86.1716 18.375 87 18.375H92.25ZM104.25 15.75H114.879L104.25 5.12109V15.75Z" fill="url(#paint1_linear_2177_2155)"/>
<path d="M177.75 0C177.889 0 178.024 0.0200492 178.152 0.0556641C178.165 0.0591829 178.178 0.0615839 178.19 0.0654297C178.221 0.0749171 178.251 0.0872339 178.281 0.0986328C178.296 0.104296 178.311 0.109098 178.326 0.115234C178.488 0.182681 178.634 0.278799 178.762 0.395508C178.778 0.410273 178.795 0.423932 178.811 0.439453L194.561 16.1895C194.799 16.4281 194.957 16.7466 194.992 17.1016C194.997 17.1507 195 17.2002 195 17.25V48.75C195 50.5402 194.289 52.2576 193.023 53.5234C191.758 54.7893 190.04 55.5 188.25 55.5H156.75C154.96 55.5 153.242 54.7893 151.977 53.5234C150.711 52.2576 150 50.5402 150 48.75V6.75C150 4.95979 150.711 3.24243 151.977 1.97656C153.242 0.710692 154.96 0 156.75 0H177.75ZM156.75 3C155.755 3 154.802 3.39537 154.099 4.09863C153.395 4.80189 153 5.75544 153 6.75V48.75C153 49.7446 153.395 50.6981 154.099 51.4014C154.802 52.1046 155.755 52.5 156.75 52.5H188.25C189.245 52.5 190.198 52.1046 190.901 51.4014C191.605 50.6981 192 49.7446 192 48.75V18.75H177.75C176.922 18.75 176.25 18.0784 176.25 17.25V3H156.75ZM183 39.375C183.828 39.375 184.5 40.0466 184.5 40.875C184.5 41.7034 183.828 42.375 183 42.375H162C161.172 42.375 160.5 41.7034 160.5 40.875C160.5 40.0466 161.172 39.375 162 39.375H183ZM183 28.875C183.828 28.875 184.5 29.5466 184.5 30.375C184.5 31.2034 183.828 31.875 183 31.875H162C161.172 31.875 160.5 31.2034 160.5 30.375C160.5 29.5466 161.172 28.875 162 28.875H183ZM167.25 18.375C168.078 18.375 168.75 19.0466 168.75 19.875C168.75 20.7034 168.078 21.375 167.25 21.375H162C161.172 21.375 160.5 20.7034 160.5 19.875C160.5 19.0466 161.172 18.375 162 18.375H167.25ZM179.25 15.75H189.879L179.25 5.12109V15.75Z" fill="#53DB78"/>
<path d="M252.75 0C252.889 0 253.024 0.0200492 253.152 0.0556641C253.165 0.0591829 253.178 0.0615839 253.19 0.0654297C253.221 0.0749171 253.251 0.0872339 253.281 0.0986328C253.296 0.104296 253.311 0.109098 253.326 0.115234C253.488 0.182681 253.634 0.278799 253.762 0.395508C253.778 0.410273 253.795 0.423932 253.811 0.439453L269.561 16.1895C269.799 16.4281 269.957 16.7466 269.992 17.1016C269.997 17.1507 270 17.2002 270 17.25V48.75C270 50.5402 269.289 52.2576 268.023 53.5234C266.758 54.7893 265.04 55.5 263.25 55.5H231.75C229.96 55.5 228.242 54.7893 226.977 53.5234C225.711 52.2576 225 50.5402 225 48.75V6.75C225 4.95979 225.711 3.24243 226.977 1.97656C228.242 0.710692 229.96 0 231.75 0H252.75ZM231.75 3C230.755 3 229.802 3.39537 229.099 4.09863C228.395 4.80189 228 5.75544 228 6.75V48.75C228 49.7446 228.395 50.6981 229.099 51.4014C229.802 52.1046 230.755 52.5 231.75 52.5H263.25C264.245 52.5 265.198 52.1046 265.901 51.4014C266.605 50.6981 267 49.7446 267 48.75V18.75H252.75C251.922 18.75 251.25 18.0784 251.25 17.25V3H231.75ZM258 39.375C258.828 39.375 259.5 40.0466 259.5 40.875C259.5 41.7034 258.828 42.375 258 42.375H237C236.172 42.375 235.5 41.7034 235.5 40.875C235.5 40.0466 236.172 39.375 237 39.375H258ZM258 28.875C258.828 28.875 259.5 29.5466 259.5 30.375C259.5 31.2034 258.828 31.875 258 31.875H237C236.172 31.875 235.5 31.2034 235.5 30.375C235.5 29.5466 236.172 28.875 237 28.875H258ZM242.25 18.375C243.078 18.375 243.75 19.0466 243.75 19.875C243.75 20.7034 243.078 21.375 242.25 21.375H237C236.172 21.375 235.5 20.7034 235.5 19.875C235.5 19.0466 236.172 18.375 237 18.375H242.25ZM254.25 15.75H264.879L254.25 5.12109V15.75Z" fill="url(#paint2_linear_2177_2155)"/>
<path d="M327.75 0C327.889 0 328.024 0.0200492 328.152 0.0556641C328.165 0.0591829 328.178 0.0615839 328.19 0.0654297C328.221 0.0749171 328.251 0.0872339 328.281 0.0986328C328.296 0.104296 328.311 0.109098 328.326 0.115234C328.488 0.182681 328.634 0.278799 328.762 0.395508C328.778 0.410273 328.795 0.423932 328.811 0.439453L344.561 16.1895C344.799 16.4281 344.957 16.7466 344.992 17.1016C344.997 17.1507 345 17.2002 345 17.25V48.75C345 50.5402 344.289 52.2576 343.023 53.5234C341.758 54.7893 340.04 55.5 338.25 55.5H306.75C304.96 55.5 303.242 54.7893 301.977 53.5234C300.711 52.2576 300 50.5402 300 48.75V6.75C300 4.95979 300.711 3.24243 301.977 1.97656C303.242 0.710692 304.96 0 306.75 0H327.75ZM306.75 3C305.755 3 304.802 3.39537 304.099 4.09863C303.395 4.80189 303 5.75544 303 6.75V48.75C303 49.7446 303.395 50.6981 304.099 51.4014C304.802 52.1046 305.755 52.5 306.75 52.5H338.25C339.245 52.5 340.198 52.1046 340.901 51.4014C341.605 50.6981 342 49.7446 342 48.75V18.75H327.75C326.922 18.75 326.25 18.0784 326.25 17.25V3H306.75ZM333 39.375C333.828 39.375 334.5 40.0466 334.5 40.875C334.5 41.7034 333.828 42.375 333 42.375H312C311.172 42.375 310.5 41.7034 310.5 40.875C310.5 40.0466 311.172 39.375 312 39.375H333ZM333 28.875C333.828 28.875 334.5 29.5466 334.5 30.375C334.5 31.2034 333.828 31.875 333 31.875H312C311.172 31.875 310.5 31.2034 310.5 30.375C310.5 29.5466 311.172 28.875 312 28.875H333ZM317.25 18.375C318.078 18.375 318.75 19.0466 318.75 19.875C318.75 20.7034 318.078 21.375 317.25 21.375H312C311.172 21.375 310.5 20.7034 310.5 19.875C310.5 19.0466 311.172 18.375 312 18.375H317.25ZM329.25 15.75H339.879L329.25 5.12109V15.75Z" fill="url(#paint3_linear_2177_2155)"/>
<circle cx="175.5" cy="145.5" r="91" fill="url(#paint4_radial_2177_2155)"/>
<ellipse cx="168.5" cy="149" rx="21" ry="20.5" fill="#53DB78"/>
<path d="M173 109.5C221.843 109.5 261.444 164.778 261.5 164.856C261.5 164.856 221.877 220.213 173 220.213C124.123 220.213 84.5 164.856 84.5 164.856C84.5565 164.778 124.158 109.5 173 109.5ZM173 124.581C150.692 124.581 132.607 142.613 132.607 164.856C132.607 187.1 150.692 205.132 173 205.132C195.308 205.132 213.392 187.1 213.392 164.856C213.392 142.613 195.308 124.581 173 124.581Z" fill="#53DB78"/>
<defs>
<linearGradient id="paint0_linear_2177_2155" x1="100" y1="27.5" x2="5.5" y2="27.5" gradientUnits="userSpaceOnUse">
<stop stop-color="#53DB78"/>
<stop offset="1" stop-color="#53DB78" stop-opacity="0"/>
</linearGradient>
<linearGradient id="paint1_linear_2177_2155" x1="120.5" y1="19.5" x2="44.5" y2="18.5" gradientUnits="userSpaceOnUse">
<stop stop-color="#53DB78"/>
<stop offset="1" stop-color="#53DB78" stop-opacity="0.25"/>
</linearGradient>
<linearGradient id="paint2_linear_2177_2155" x1="225" y1="27.75" x2="302.5" y2="27.5" gradientUnits="userSpaceOnUse">
<stop stop-color="#53DB78"/>
<stop offset="1" stop-color="#53DB78" stop-opacity="0.25"/>
</linearGradient>
<linearGradient id="paint3_linear_2177_2155" x1="247.5" y1="27.5" x2="335.5" y2="27.5" gradientUnits="userSpaceOnUse">
<stop stop-color="#53DB78"/>
<stop offset="1" stop-color="#53DB78" stop-opacity="0"/>
</linearGradient>
<radialGradient id="paint4_radial_2177_2155" cx="0" cy="0" r="1" gradientUnits="userSpaceOnUse" gradientTransform="translate(175.5 145.5) rotate(90) scale(91)">
<stop stop-color="#53DB78" stop-opacity="0.5"/>
<stop offset="1" stop-color="#2C7540" stop-opacity="0"/>
</radialGradient>
</defs>
</svg>
