<svg width="259" height="252" viewBox="0 0 259 252" fill="none" xmlns="http://www.w3.org/2000/svg">
<circle cx="95.7874" cy="65.8201" r="43.345" fill="url(#paint0_radial_2177_2130)"/>
<circle cx="167.494" cy="108.63" r="41.2045" fill="url(#paint1_radial_2177_2130)"/>
<circle cx="91.5061" cy="165.353" r="45.4855" fill="url(#paint2_radial_2177_2130)"/>
<circle cx="128.965" cy="125.754" r="110.271" fill="#53DB78" fill-opacity="0.05" stroke="#53DB78"/>
<circle cx="128.965" cy="125.754" r="84.5847" stroke="#53DB78" stroke-opacity="0.2"/>
<circle cx="128.964" cy="125.754" r="58.8988" stroke="#53DB78" stroke-opacity="0.2"/>
<circle cx="100" cy="70" r="14" fill="#53DB78"/>
<circle cx="95" cy="169" r="14" fill="#53DB78"/>
<circle cx="168" cy="109" r="14" fill="#53DB78"/>
<line x1="129" y1="251.508" x2="129" y2="1.52806e-05" stroke="#53DB78"/>
<line y1="125.789" x2="259" y2="125.789" stroke="#53DB78"/>
<path d="M235.672 155.378C227.117 185.255 207.217 208.841 181.974 222.774L127.037 124.849L127.043 124.828L235.672 155.378Z" fill="url(#paint3_linear_2177_2130)" fill-opacity="0.3"/>
<circle cx="128.965" cy="125.754" r="3.74587" fill="#53DB78"/>
<defs>
<radialGradient id="paint0_radial_2177_2130" cx="0" cy="0" r="1" gradientUnits="userSpaceOnUse" gradientTransform="translate(95.7874 65.8201) rotate(90) scale(43.345)">
<stop stop-color="#53DB78" stop-opacity="0.5"/>
<stop offset="1" stop-color="#2C7540" stop-opacity="0"/>
</radialGradient>
<radialGradient id="paint1_radial_2177_2130" cx="0" cy="0" r="1" gradientUnits="userSpaceOnUse" gradientTransform="translate(167.494 108.63) rotate(90) scale(41.2045)">
<stop stop-color="#53DB78" stop-opacity="0.5"/>
<stop offset="1" stop-color="#2C7540" stop-opacity="0"/>
</radialGradient>
<radialGradient id="paint2_radial_2177_2130" cx="0" cy="0" r="1" gradientUnits="userSpaceOnUse" gradientTransform="translate(91.5061 165.353) rotate(90) scale(45.4855)">
<stop stop-color="#53DB78" stop-opacity="0.5"/>
<stop offset="1" stop-color="#2C7540" stop-opacity="0"/>
</radialGradient>
<linearGradient id="paint3_linear_2177_2130" x1="128.329" y1="124.828" x2="215.676" y2="194.814" gradientUnits="userSpaceOnUse">
<stop stop-color="#53DB78"/>
<stop offset="1"/>
</linearGradient>
</defs>
</svg>
